<svg width="400" height="560" viewBox="0 0 400 560" fill="none" xmlns="http://www.w3.org/2000/svg">
  <defs>
    <linearGradient id="bg8" x1="0" y1="0" x2="0" y2="560" gradientUnits="userSpaceOnUse">
      <stop offset="0%" stop-color="#1E1E1E"/>
      <stop offset="100%" stop-color="#111"/>
    </linearGradient>
  </defs>
  <rect width="400" height="560" rx="16" fill="url(#bg8)"/>

  <!-- Accent glow -->
  <circle cx="200" cy="280" r="180" fill="#FF6F0F" opacity="0.03"/>

  <!-- Top -->
  <rect x="24" y="20" width="90" height="26" rx="13" fill="#FF6F0F"/>
  <text x="69" y="38" text-anchor="middle" font-family="Arial, sans-serif" font-size="11" font-weight="700" fill="white">창호의민족</text>

  <text x="24" y="80" font-family="Arial, sans-serif" font-size="15" font-weight="600" fill="#999">왜 창호의민족에서</text>
  <text x="24" y="102" font-family="Arial, sans-serif" font-size="15" font-weight="600" fill="#999">그린리모델링을 해야 할까요?</text>

  <text x="24" y="150" font-family="Arial, sans-serif" font-size="30" font-weight="900" fill="white" letter-spacing="-1">공장 직영이니까</text>
  <text x="24" y="188" font-family="Arial, sans-serif" font-size="30" font-weight="900" fill="#FF6F0F" letter-spacing="-1">다릅니다.</text>

  <!-- Feature cards -->
  <g transform="translate(24, 215)">
    <rect x="0" y="0" width="352" height="58" rx="12" fill="#2A2A2A"/>
    <rect x="12" y="12" width="34" height="34" rx="8" fill="#FF6F0F" opacity="0.15"/>
    <text x="29" y="35" text-anchor="middle" font-family="Arial, sans-serif" font-size="17">🏭</text>
    <text x="58" y="28" font-family="Arial, sans-serif" font-size="14" font-weight="700" fill="white">3,500평 자체 공장 직영 생산</text>
    <text x="58" y="46" font-family="Arial, sans-serif" font-size="11" fill="#777">중간 유통 없이 품질↑ 가격↓</text>

    <rect x="0" y="66" width="352" height="58" rx="12" fill="#2A2A2A"/>
    <rect x="12" y="78" width="34" height="34" rx="8" fill="#4A7C59" opacity="0.2"/>
    <text x="29" y="101" text-anchor="middle" font-family="Arial, sans-serif" font-size="17">💰</text>
    <text x="58" y="94" font-family="Arial, sans-serif" font-size="14" font-weight="700" fill="white">단독 최대 1억 / 공동 최대 3천만 지원</text>
    <text x="58" y="112" font-family="Arial, sans-serif" font-size="11" fill="#777">정부 이자지원으로 부담 최소화</text>

    <rect x="0" y="132" width="352" height="58" rx="12" fill="#2A2A2A"/>
    <rect x="12" y="144" width="34" height="34" rx="8" fill="#4A7C59" opacity="0.2"/>
    <text x="29" y="167" text-anchor="middle" font-family="Arial, sans-serif" font-size="17">📅</text>
    <text x="58" y="160" font-family="Arial, sans-serif" font-size="14" font-weight="700" fill="white">최대 60개월(5년) 할부 가능</text>
    <text x="58" y="178" font-family="Arial, sans-serif" font-size="11" fill="#777">월 부담금 확 줄이기</text>

    <rect x="0" y="198" width="352" height="58" rx="12" fill="#2A2A2A"/>
    <rect x="12" y="210" width="34" height="34" rx="8" fill="#FF6F0F" opacity="0.15"/>
    <text x="29" y="233" text-anchor="middle" font-family="Arial, sans-serif" font-size="17">📋</text>
    <text x="58" y="226" font-family="Arial, sans-serif" font-size="14" font-weight="700" fill="white">지원금 신청 전 과정 무료 대행</text>
    <text x="58" y="244" font-family="Arial, sans-serif" font-size="11" fill="#777">서류 준비부터 접수까지 원스톱 서비스</text>

    <rect x="0" y="264" width="352" height="58" rx="12" fill="#2A2A2A"/>
    <rect x="12" y="276" width="34" height="34" rx="8" fill="#FF6F0F" opacity="0.15"/>
    <text x="29" y="299" text-anchor="middle" font-family="Arial, sans-serif" font-size="17">⭐</text>
    <text x="58" y="292" font-family="Arial, sans-serif" font-size="14" font-weight="700" fill="white">15,000+ 세대 시공 경험</text>
    <text x="58" y="310" font-family="Arial, sans-serif" font-size="11" fill="#777">평균 만족도 4.9/5.0</text>
  </g>

  <!-- CTA -->
  <rect x="50" y="510" width="300" height="30" rx="15" fill="#FF6F0F"/>
  <text x="200" y="530" text-anchor="middle" font-family="Arial, sans-serif" font-size="13" font-weight="800" fill="white">공장 직영 견적 받기 →</text>
</svg>